<?xml version="1.0"?>
<svg xmlns="http://www.w3.org/2000/svg" xmlns:xlink="http://www.w3.org/1999/xlink" xmlns:svgjs="http://svgjs.com/svgjs" version="1.1" width="512" height="512" x="0" y="0" viewBox="0 0 24 24" style="enable-background:new 0 0 512 512" xml:space="preserve" class=""><g><path xmlns="http://www.w3.org/2000/svg" d="m12 7c-1.103 0-2-.897-2-2 0-.931.639-1.714 1.5-1.937v-2.563c0-.276.224-.5.5-.5s.5.224.5.5v3c0 .276-.224.5-.5.5-.552 0-1 .448-1 1s.448 1 1 1 1-.448 1-1c0-.276.224-.5.5-.5s.5.224.5.5c0 1.103-.897 2-2 2z" fill="#ffffff" data-original="#000000" style="" class=""/><path xmlns="http://www.w3.org/2000/svg" d="m23.5 24h-23c-.276 0-.5-.224-.5-.5v-12c0-.18.097-.346.253-.435l8.5-4.83c.238-.138.546-.053.682.188.137.24.053.545-.188.682l-8.247 4.686v11.209h22v-11.209l-8.247-4.687c-.24-.137-.324-.441-.188-.682.136-.24.441-.325.682-.188l8.5 4.83c.156.09.253.256.253.436v12c0 .276-.224.5-.5.5z" fill="#ffffff" data-original="#000000" style="" class=""/><path xmlns="http://www.w3.org/2000/svg" d="m9.5 24h-6c-.276 0-.5-.224-.5-.5v-6c0-.276.224-.5.5-.5h6c.276 0 .5.224.5.5v6c0 .276-.224.5-.5.5zm-5.5-1h5v-5h-5z" fill="#ffffff" data-original="#000000" style="" class=""/><path xmlns="http://www.w3.org/2000/svg" d="m6.5 20.5c-.276 0-.5-.224-.5-.5v-2.5c0-.276.224-.5.5-.5s.5.224.5.5v2.5c0 .276-.224.5-.5.5z" fill="#ffffff" data-original="#000000" style="" class=""/><path xmlns="http://www.w3.org/2000/svg" d="m15.5 24h-6c-.276 0-.5-.224-.5-.5v-6c0-.276.224-.5.5-.5h6c.276 0 .5.224.5.5v6c0 .276-.224.5-.5.5zm-5.5-1h5v-5h-5z" fill="#ffffff" data-original="#000000" style="" class=""/><path xmlns="http://www.w3.org/2000/svg" d="m12.5 20.5c-.276 0-.5-.224-.5-.5v-2.5c0-.276.224-.5.5-.5s.5.224.5.5v2.5c0 .276-.224.5-.5.5z" fill="#ffffff" data-original="#000000" style="" class=""/><path xmlns="http://www.w3.org/2000/svg" d="m20.5 24h-5c-.276 0-.5-.224-.5-.5v-5c0-.276.224-.5.5-.5h5c.276 0 .5.224.5.5v5c0 .276-.224.5-.5.5zm-4.5-1h4v-4h-4z" fill="#ffffff" data-original="#000000" style="" class=""/><path xmlns="http://www.w3.org/2000/svg" d="m18 20.5c-.276 0-.5-.224-.5-.5v-1.5c0-.276.224-.5.5-.5s.5.224.5.5v1.5c0 .276-.224.5-.5.5z" fill="#ffffff" data-original="#000000" style="" class=""/><path xmlns="http://www.w3.org/2000/svg" d="m13.5 18h-6c-.276 0-.5-.224-.5-.5v-6c0-.276.224-.5.5-.5h6c.276 0 .5.224.5.5v6c0 .276-.224.5-.5.5zm-5.5-1h5v-5h-5z" fill="#ffffff" data-original="#000000" style="" class=""/><path xmlns="http://www.w3.org/2000/svg" d="m10.5 14.5c-.276 0-.5-.224-.5-.5v-2.5c0-.276.224-.5.5-.5s.5.224.5.5v2.5c0 .276-.224.5-.5.5z" fill="#ffffff" data-original="#000000" style="" class=""/></g></svg>
