<svg id="bold" enable-background="new 0 0 24 24" height="512" viewBox="0 0 24 24" width="512" xmlns="http://www.w3.org/2000/svg"><path d="m6.284 19.838c-.325-.257-.379-.729-.122-1.054.793-1 2.044-2.196 1.167-3.949-.145-.289-.088-.638.141-.866l1.81-1.81c.582-.582.634-1.496.157-2.138l-5.178 4.779c-.305.28-.778.262-1.06-.042-.281-.305-.262-.779.042-1.06l5.367-4.954c.495-.457 1.255-.441 1.732.036.593.593.919 1.381.919 2.22s-.327 1.627-.919 2.22l-1.455 1.455c.812 2.365-.596 3.839-1.547 5.041-.259.326-.73.378-1.054.122z"/><path d="m8.75 24h-8c-.414 0-.75-.336-.75-.75v-7.938c0-2.063.924-3.984 2.536-5.273l2.346-1.875c.324-.258.797-.206 1.054.118.258.324.206.795-.118 1.054l-2.346 1.875c-1.253 1.002-1.972 2.497-1.972 4.101v7.188h6.5v-1.248c0-.414.336-.75.75-.75.965 0 1.75-.785 1.75-1.75v-2.252c0-.414.336-.75.75-.75s.75.336.75.75v2.252c0 1.534-1.068 2.823-2.5 3.163v1.335c0 .414-.336.75-.75.75z"/><path d="m12 5h-4.5c-1.38 0-2.5 1.12-2.5 2.5v5.6l2-1.85v-3.75c0-.28.22-.5.5-.5h4.5z"/><path d="m20 11.775v.475c0 1.1.9 2 2 2v.25c0 .28-.22.5-.5.5h-13.3c.11.33.16.68.16 1.03 0 .33-.05.65-.14.97h13.28c1.38 0 2.5-1.12 2.5-2.5v-4.118z"/><path d="m19 0 5 2.231-5 2.231-5-2.231z"/><path d="m20 5.658v3.857l4-1.784v-3.858z"/><path d="m18 5.658-4-1.785v3.858l4 1.784z"/></svg>