<?xml version="1.0" encoding="iso-8859-1"?>
<!-- Generator: Adobe Illustrator 19.0.0, SVG Export Plug-In . SVG Version: 6.00 Build 0)  -->
<svg version="1.1" id="Capa_1" xmlns="http://www.w3.org/2000/svg" xmlns:xlink="http://www.w3.org/1999/xlink" x="0px" y="0px"
	 viewBox="0 0 512.001 512.001" style="enable-background:new 0 0 512.001 512.001;" xml:space="preserve">
<g>
	<g>
		<path d="M509.773,114.355l-82.826-82.826c-2.971-2.971-7.787-2.971-10.756,0L179.545,268.173
			c-1.035,1.035-1.749,2.347-2.058,3.778l-22.715,105.541c-0.544,2.525,0.231,5.153,2.058,6.979
			c1.441,1.442,3.382,2.228,5.378,2.228c0.532,0,1.069-0.056,1.6-0.17l105.541-22.716c1.431-0.308,2.743-1.022,3.778-2.058
			l236.645-236.643c1.427-1.426,2.228-3.361,2.228-5.378S511.199,115.781,509.773,114.355z M421.568,47.665l14.521,14.521
			L210.201,288.073l-14.521-14.521L421.568,47.665z M172.123,369.18l6.247-29.03l22.782,22.782L172.123,369.18z M218.856,359.12
			l-36.675-36.675l7.24-33.639l15.399,15.399c0,0.001,0.001,0.002,0.002,0.003l47.672,47.671L218.856,359.12z M267.749,345.621
			L253.228,331.1l157.524-157.524c2.971-2.971,2.971-7.786,0-10.757c-2.971-2.971-7.787-2.971-10.756,0L242.472,320.343
			l-16.937-16.937l-4.575-4.575L446.846,72.942l10.757,10.757l10.756,10.756l-48.588,48.588c-2.971,2.971-2.971,7.786,0,10.756
			c2.971,2.971,7.787,2.971,10.757,0l48.588-48.588l14.521,14.521L267.749,345.621z"/>
	</g>
</g>
<g>
	<g>
		<path d="M382.045,471.552c-0.498-4.171-4.275-7.151-8.455-6.651c-83.352,9.961-181.214-8.607-206.984-63.37
			c-1.79-3.801-6.322-5.432-10.121-3.644c-3.801,1.789-5.432,6.32-3.644,10.122c24.999,53.123,102.241,74.691,176.922,74.691
			c15.481,0,30.862-0.928,45.632-2.693C379.566,479.509,382.543,475.723,382.045,471.552z"/>
	</g>
</g>
<g>
	<g>
		<path d="M423.13,342.997c-25.63-13.783-65.134-27.735-91.051-27.735c-4.201,0-7.606,3.406-7.606,7.606
			c0,4.201,3.406,7.606,7.606,7.606c17.281,0,52.539,9.084,83.845,25.921c20.214,10.87,54.125,33.444,54.125,62.489
			c0,16.009-25.13,31.631-65.582,40.769c-4.097,0.926-6.669,4.998-5.743,9.095c0.798,3.533,3.935,5.932,7.413,5.932
			c0.555,0,1.12-0.062,1.684-0.189c49.216-11.118,77.442-31.386,77.442-55.608C485.262,391.496,463.196,364.545,423.13,342.997z"/>
	</g>
</g>
<g>
	<g>
		<path d="M246.691,141.603c-86.527-2.083-191.322,12.886-230.39,51.025C5.485,203.186,0,215.093,0,228.02
			c0,25.527,15.024,44.325,45.932,57.467c29.025,12.342,69.442,18.46,105.149,22.819c0.313,0.039,0.624,0.057,0.931,0.057
			c3.79-0.001,7.07-2.83,7.542-6.687c0.509-4.17-2.458-7.963-6.629-8.473c-34.653-4.229-73.757-10.118-101.04-21.718
			c-25.019-10.637-36.672-24.449-36.672-43.466c0-8.796,3.832-16.813,11.714-24.508c35.707-34.857,138.765-48.64,219.397-46.701
			c4.187,0.086,7.686-3.221,7.788-7.421C254.213,145.19,250.89,141.704,246.691,141.603z"/>
	</g>
</g>
<g>
</g>
<g>
</g>
<g>
</g>
<g>
</g>
<g>
</g>
<g>
</g>
<g>
</g>
<g>
</g>
<g>
</g>
<g>
</g>
<g>
</g>
<g>
</g>
<g>
</g>
<g>
</g>
<g>
</g>
</svg>
