<?xml version="1.0" encoding="iso-8859-1"?>
<!-- Generator: Adobe Illustrator 19.0.0, SVG Export Plug-In . SVG Version: 6.00 Build 0)  -->
<svg version="1.1" id="Capa_1" xmlns="http://www.w3.org/2000/svg" xmlns:xlink="http://www.w3.org/1999/xlink" x="0px" y="0px"
	 viewBox="0 0 428.487 428.487" style="enable-background:new 0 0 428.487 428.487;" xml:space="preserve">
<g>
	<g>
		<path d="M214.247,126.24c-48.601,0-88,39.399-88,88c0,48.601,39.399,88,88,88s88-39.399,88-88
			C302.247,165.639,262.848,126.24,214.247,126.24z M214.247,292.08c-42.99,0-77.84-34.85-77.84-77.84
			c0-42.99,34.85-77.84,77.84-77.84c42.99,0,77.84,34.85,77.84,77.84C292.043,257.212,257.219,292.036,214.247,292.08z"/>
	</g>
</g>
<g>
	<g>
		<path d="M423.367,209.12h-62.64c-2.8-76.881-64.479-138.56-141.36-141.36V5.12c0-2.828-2.292-5.12-5.12-5.12
			s-5.12,2.292-5.12,5.12v62.64c-76.881,2.8-138.56,64.479-141.36,141.36H5.127c-2.828-0.004-5.123,2.285-5.127,5.113
			c-0.004,2.828,2.285,5.123,5.113,5.127c0.005,0,0.009,0,0.014,0h62.64c2.8,76.881,64.479,138.56,141.36,141.36v62.64
			c-0.004,2.828,2.285,5.123,5.113,5.127c2.828,0.004,5.123-2.285,5.127-5.113c0-0.005,0-0.009,0-0.014v-62.64
			c76.881-2.8,138.56-64.479,141.36-141.36h62.64c2.828,0,5.12-2.292,5.12-5.12S426.195,209.12,423.367,209.12z M328.727,219.36
			h21.52c-2.898,71.048-59.832,127.981-130.88,130.88v-21.52c0-2.828-2.292-5.12-5.12-5.12s-5.12,2.292-5.12,5.12v21.52
			c-71.048-2.898-127.982-59.832-130.88-130.88h21.84c2.828,0,5.12-2.292,5.12-5.12s-2.292-5.12-5.12-5.12h-21.84
			c2.898-71.048,59.832-127.982,130.88-130.88v21.84c-0.004,2.828,2.285,5.123,5.113,5.127c2.828,0.004,5.123-2.285,5.127-5.113
			c0-0.005,0-0.009,0-0.014V78.24c71.048,2.898,127.982,59.832,130.88,130.88h-21.52c-2.828,0.004-5.117,2.299-5.113,5.127
			C323.618,217.069,325.905,219.356,328.727,219.36z"/>
	</g>
</g>
<g>
	<g>
		<path d="M214.247,179.44c-19.219,0-34.8,15.58-34.8,34.8c0,19.219,15.58,34.8,34.8,34.8c19.219,0,34.8-15.581,34.8-34.8
			C249.047,195.02,233.467,179.44,214.247,179.44z M214.247,238.8c-13.564,0-24.56-10.996-24.56-24.56
			c0-13.564,10.996-24.56,24.56-24.56c13.564,0,24.56,10.996,24.56,24.56C238.763,227.786,227.793,238.756,214.247,238.8z"/>
	</g>
</g>
<g>
</g>
<g>
</g>
<g>
</g>
<g>
</g>
<g>
</g>
<g>
</g>
<g>
</g>
<g>
</g>
<g>
</g>
<g>
</g>
<g>
</g>
<g>
</g>
<g>
</g>
<g>
</g>
<g>
</g>
</svg>
