<?xml version="1.0" encoding="iso-8859-1"?>
<!-- Generator: Adobe Illustrator 21.0.0, SVG Export Plug-In . SVG Version: 6.00 Build 0)  -->
<svg xmlns="http://www.w3.org/2000/svg" xmlns:xlink="http://www.w3.org/1999/xlink" version="1.1" id="Capa_1" x="0px" y="0px" viewBox="0 0 512.007 512.007" style="enable-background:new 0 0 512.007 512.007;" xml:space="preserve" width="512" height="512">
<g>
	<path d="M488.007,107.007c0-6.05-3.647-11.514-9.229-13.843l-217.006-92c-3.691-1.553-7.852-1.553-11.543,0l-217.006,92   c-5.581,2.329-9.229,7.793-9.229,13.843s3.647,11.514,9.229,13.843l217.006,90c1.846,0.776,3.809,1.157,5.771,1.157   c1.963,0,3.926-0.381,5.771-1.157l190.229-78.843v91.456l-28.418,56.836c-3.706,7.412-0.703,16.421,6.709,20.127   c7.397,3.662,16.421,0.703,20.127-6.709l16.582-33.164l16.582,33.164c3.691,7.361,12.647,10.422,20.127,6.709   c7.412-3.706,10.415-12.715,6.709-20.127l-28.418-56.836V118.195C485.462,115.394,488.007,111.603,488.007,107.007z"/>
	<path d="M392.001,257.007v-67.502l-118.686,49.03c-5.435,2.3-11.294,3.472-17.314,3.472c-6.02,0-11.88-1.172-17.402-3.501   l-117.598-49.001v67.502c0,5.435,2.944,10.444,7.69,13.096c2.329,1.304,57.934,31.904,127.31,31.904   c69.374,0,125.98-30.601,128.31-31.904C389.056,267.452,392.001,262.442,392.001,257.007z"/>
	<ellipse cx="482.001" cy="407.007" rx="30" ry="75"/>
	<path d="M226.001,476.968c0,3.268,1.068,6.449,3.043,9.056l16.349,21.588c5.859,5.859,15.355,5.859,21.215,0l16.349-21.588   c1.976-2.607,3.043-5.788,3.043-9.056V362.007h-60V476.968z"/>
	<path d="M316.001,356.802v100.411l119.753,19.792c-8.654-17.953-13.753-41.717-13.753-69.998s5.099-52.044,13.753-69.998   L316.001,356.802z"/>
	<path d="M44.876,481.987c0.038,0,0.071,0.02,0.11,0.02c0.004,0,0.013,0,0.015,0c0.007,0,0.013-0.004,0.02-0.004   c1.919,0-16.261,3.003,150.98-24.791V356.802c-3.04-0.504-159.307-26.208-149.411-24.567   c-32.466-1.663-46.589,42.105-46.589,74.773C0.001,449.695,19.291,481.877,44.876,481.987z"/>
</g>















</svg>
