<svg height="386pt" viewBox="0 -92 386.05002 386" width="386pt" xmlns="http://www.w3.org/2000/svg"><path d="m285.101562 42.925781c-32.035156 0-58 25.964844-58 58 0 32.03125 25.964844 58 58 58 32.03125 0 58-25.96875 58-58-.023437-32.023437-25.980468-57.976562-58-58zm0 0"/><path d="m285.101562.0234375h-184.203124c-55.722657 0-100.898438 45.1757815-100.898438 100.9023435 0 55.726563 45.175781 100.898438 100.898438 100.898438h184.300781c55.726562-.027344 100.878906-45.222657 100.851562-100.949219-.027343-55.726562-45.226562-100.87890625-100.949219-100.8515625zm0 172.9023435c-39.765624 0-72-32.234375-72-72s32.234376-72 72-72c39.761719 0 72 32.234375 72 72-.046874 39.746094-32.257812 71.953125-72 72zm0 0"/></svg>